<svg width="128" height="39" viewBox="0 0 128 39" fill="none" xmlns="http://www.w3.org/2000/svg">
<g clip-path="url(#clip0_155_5464)">
<path d="M123.069 0.330078H4.73343C2.11923 0.330078 0 2.44931 0 5.06351V33.4641C0 36.0783 2.11923 38.1976 4.73343 38.1976H123.069C125.683 38.1976 127.803 36.0783 127.803 33.4641V5.06351C127.803 2.44931 125.683 0.330078 123.069 0.330078Z" fill="black"/>
<path d="M123.069 1.08743C124.124 1.08743 125.135 1.50634 125.881 2.252C126.626 2.99766 127.045 4.00899 127.045 5.06351V33.4641C127.045 34.5186 126.626 35.53 125.881 36.2756C125.135 37.0213 124.124 37.4402 123.069 37.4402H4.73343C3.67891 37.4402 2.66758 37.0213 1.92192 36.2756C1.17626 35.53 0.75735 34.5186 0.75735 33.4641V5.06351C0.75735 4.00899 1.17626 2.99766 1.92192 2.252C2.66758 1.50634 3.67891 1.08743 4.73343 1.08743H123.069ZM123.069 0.330078H4.73343C3.47805 0.330078 2.27408 0.828778 1.38639 1.71647C0.4987 2.60416 0 3.80813 0 5.06351V33.4641C0 34.7195 0.4987 35.9235 1.38639 36.8112C2.27408 37.6989 3.47805 38.1976 4.73343 38.1976H123.069C124.325 38.1976 125.529 37.6989 126.416 36.8112C127.304 35.9235 127.803 34.7195 127.803 33.4641V5.06351C127.803 3.80813 127.304 2.60416 126.416 1.71647C125.529 0.828778 124.325 0.330078 123.069 0.330078Z" fill="#A6A6A6"/>
<path d="M30.5145 19.5489C30.5248 18.7588 30.7352 17.984 31.1264 17.2968C31.5175 16.6095 32.0767 16.0321 32.7517 15.6182C32.3229 15.0075 31.7571 14.5048 31.0994 14.1502C30.4417 13.7957 29.7101 13.5989 28.9627 13.5756C27.3686 13.4087 25.8231 14.5268 25.0107 14.5268C24.1826 14.5268 22.9319 13.5921 21.585 13.6198C20.7138 13.6478 19.8648 13.9005 19.1206 14.353C18.3764 14.8056 17.7625 15.4427 17.3387 16.2022C15.5026 19.3721 16.8721 24.0308 18.6309 26.5931C19.5109 27.8478 20.5393 29.2493 21.8849 29.1996C23.2017 29.1452 23.6935 28.3623 25.283 28.3623C26.8577 28.3623 27.3191 29.1996 28.6921 29.168C30.1051 29.1452 30.9953 27.9078 31.8444 26.6412C32.4766 25.7472 32.9632 24.7591 33.2859 23.7136C32.465 23.3673 31.7645 22.7878 31.2716 22.0472C30.7788 21.3066 30.5155 20.4377 30.5145 19.5489V19.5489Z" fill="white"/>
<path d="M27.921 11.8905C28.6914 10.9682 29.0709 9.78277 28.979 8.58594C27.802 8.70922 26.7148 9.27018 25.9339 10.1571C25.5522 10.5903 25.2598 11.0944 25.0735 11.6404C24.8872 12.1864 24.8106 12.7637 24.8482 13.3393C25.4369 13.3453 26.0193 13.2181 26.5516 12.9671C27.0838 12.7161 27.5521 12.348 27.921 11.8905Z" fill="white"/>
<path d="M47.1597 26.0238H42.6661L41.5869 29.2013H39.6836L43.9399 17.4453H45.9174L50.1737 29.2013H48.2379L47.1597 26.0238ZM43.1315 24.5575H46.6934L44.9375 19.4006H44.8883L43.1315 24.5575Z" fill="white"/>
<path d="M59.3659 24.9163C59.3659 27.5798 57.9363 29.291 55.7789 29.291C55.2325 29.3195 54.689 29.194 54.2107 28.9288C53.7324 28.6636 53.3387 28.2694 53.0746 27.7915H53.0338V32.0368H51.2695V20.6303H52.9773V22.0559H53.0097C53.2859 21.5802 53.6863 21.1881 54.1682 20.9213C54.6501 20.6545 55.1956 20.5229 55.7465 20.5406C57.9279 20.5407 59.3659 22.2602 59.3659 24.9163ZM57.5525 24.9163C57.5525 23.181 56.6532 22.0402 55.2811 22.0402C53.9331 22.0402 53.0264 23.2051 53.0264 24.9163C53.0264 26.6433 53.9331 27.7998 55.2811 27.7998C56.6532 27.7998 57.5525 26.6673 57.5525 24.9163Z" fill="white"/>
<path d="M68.8258 24.9163C68.8258 27.5798 67.3963 29.291 65.2389 29.291C64.6924 29.3195 64.1489 29.194 63.6706 28.9288C63.1924 28.6636 62.7987 28.2694 62.5346 27.7915H62.4938V32.0368H60.7295V20.6303H62.4372V22.0559H62.4696C62.7459 21.5802 63.1462 21.1881 63.6281 20.9213C64.1101 20.6545 64.6555 20.5229 65.2064 20.5406C67.3879 20.5406 68.8258 22.2602 68.8258 24.9163ZM67.0124 24.9163C67.0124 23.181 66.1131 22.0402 64.7411 22.0402C63.3931 22.0402 62.4864 23.205 62.4864 24.9163C62.4864 26.6433 63.3931 27.7998 64.7411 27.7998C66.1132 27.7998 67.0124 26.6673 67.0124 24.9163H67.0124Z" fill="white"/>
<path d="M75.0785 25.9255C75.2092 27.0913 76.3449 27.8567 77.8968 27.8567C79.3839 27.8567 80.4538 27.0913 80.4538 26.0401C80.4538 25.1276 79.8085 24.5812 78.2807 24.2068L76.7528 23.8398C74.588 23.3184 73.5831 22.3088 73.5831 20.6706C73.5831 18.6422 75.3557 17.249 77.8727 17.249C80.3638 17.249 82.0715 18.6422 82.129 20.6706H80.3481C80.2414 19.4974 79.2689 18.7892 77.8477 18.7892C76.4264 18.7892 75.4539 19.5057 75.4539 20.5486C75.4539 21.3797 76.0751 21.8688 77.5946 22.2431L78.8934 22.5612C81.3122 23.1316 82.3172 24.1005 82.3172 25.82C82.3172 28.0194 80.5604 29.3969 77.7661 29.3969C75.1517 29.3969 73.3865 28.0518 73.2725 25.9254L75.0785 25.9255Z" fill="white"/>
<path d="M86.1249 18.6016V20.6299H87.7593V22.0231H86.1249V26.7482C86.1249 27.4823 86.4521 27.8244 87.1706 27.8244C87.3647 27.821 87.5584 27.8074 87.751 27.7837V29.1686C87.428 29.2287 87.0996 29.256 86.7711 29.2499C85.0309 29.2499 84.3523 28.5981 84.3523 26.9359V22.0231H83.1025V20.6299H84.3522V18.6016H86.1249Z" fill="white"/>
<path d="M88.7051 24.9158C88.7051 22.219 90.2978 20.5244 92.7815 20.5244C95.2735 20.5244 96.8589 22.219 96.8589 24.9158C96.8589 27.6199 95.2819 29.3071 92.7815 29.3071C90.282 29.3071 88.7051 27.6199 88.7051 24.9158ZM95.0612 24.9158C95.0612 23.0659 94.2111 21.974 92.7815 21.974C91.3519 21.974 90.5027 23.0742 90.5027 24.9158C90.5027 26.7731 91.3519 27.8566 92.7815 27.8566C94.2111 27.8566 95.0612 26.7731 95.0612 24.9158H95.0612Z" fill="white"/>
<path d="M98.3135 20.6302H99.9962V22.0891H100.037C100.151 21.6335 100.418 21.2308 100.795 20.9488C101.171 20.6668 101.634 20.5226 102.104 20.5406C102.308 20.5398 102.51 20.5619 102.709 20.6062V22.2518C102.452 22.1736 102.184 22.1377 101.916 22.1455C101.66 22.1351 101.404 22.1802 101.167 22.2776C100.93 22.375 100.717 22.5224 100.542 22.7098C100.367 22.8971 100.235 23.1199 100.155 23.3629C100.075 23.6059 100.049 23.8633 100.078 24.1174V29.2013H98.3135L98.3135 20.6302Z" fill="white"/>
<path d="M110.844 26.6834C110.607 28.2394 109.087 29.3072 107.143 29.3072C104.643 29.3072 103.091 27.6366 103.091 24.9565C103.091 22.268 104.651 20.5244 107.069 20.5244C109.447 20.5244 110.942 22.1534 110.942 24.7521V25.3549H104.872V25.4612C104.844 25.7767 104.883 26.0944 104.988 26.3934C105.093 26.6924 105.26 26.9658 105.478 27.1955C105.697 27.4251 105.962 27.6057 106.256 27.7252C106.55 27.8448 106.867 27.9006 107.184 27.889C107.601 27.9279 108.019 27.8316 108.377 27.6144C108.735 27.3972 109.012 27.0707 109.169 26.6834L110.844 26.6834ZM104.88 24.1253H109.177C109.193 23.8417 109.15 23.5579 109.051 23.2917C108.951 23.0255 108.798 22.7826 108.6 22.5783C108.402 22.3741 108.164 22.2128 107.9 22.1047C107.637 21.9966 107.354 21.9439 107.069 21.95C106.782 21.9483 106.497 22.0033 106.231 22.112C105.965 22.2206 105.724 22.3806 105.52 22.5829C105.317 22.7851 105.155 23.0255 105.045 23.2903C104.936 23.555 104.879 23.8388 104.88 24.1253V24.1253Z" fill="white"/>
<path d="M42.9104 8.59528C43.2802 8.56881 43.6514 8.62453 43.9971 8.75842C44.3427 8.89232 44.6543 9.10104 44.9093 9.36955C45.1642 9.63805 45.3563 9.95964 45.4715 10.3111C45.5868 10.6626 45.6224 11.0352 45.5757 11.4021C45.5757 13.2067 44.5977 14.244 42.9104 14.244H40.8643V8.59528H42.9104ZM41.7441 13.4452H42.8121C43.0764 13.4609 43.3409 13.4177 43.5863 13.3187C43.8318 13.2196 44.052 13.0673 44.2309 12.8726C44.4099 12.678 44.543 12.4461 44.6208 12.1937C44.6985 11.9413 44.7188 11.6748 44.6802 11.4136C44.716 11.1534 44.6936 10.8885 44.6147 10.638C44.5358 10.3874 44.4023 10.1574 44.2238 9.96431C44.0452 9.77125 43.8261 9.61997 43.582 9.52129C43.3379 9.42261 43.075 9.37898 42.8121 9.39353H41.7441V13.4452Z" fill="white"/>
<path d="M46.5701 12.1112C46.5432 11.8311 46.5753 11.5484 46.6644 11.2814C46.7535 11.0144 46.8976 10.7689 47.0874 10.5606C47.2772 10.3524 47.5086 10.186 47.7667 10.0721C48.0247 9.95823 48.3038 9.89941 48.5861 9.89941C48.8683 9.89941 49.1474 9.95823 49.4054 10.0721C49.6635 10.186 49.8949 10.3524 50.0847 10.5606C50.2745 10.7689 50.4186 11.0144 50.5077 11.2814C50.5968 11.5484 50.6289 11.8311 50.602 12.1112C50.6294 12.3917 50.5977 12.6747 50.5088 12.9422C50.42 13.2096 50.276 13.4556 50.0861 13.6643C49.8962 13.8729 49.6647 14.0397 49.4064 14.1538C49.148 14.2679 48.8686 14.3268 48.5861 14.3268C48.3035 14.3268 48.0241 14.2679 47.7657 14.1538C47.5074 14.0397 47.2759 13.8729 47.086 13.6643C46.8961 13.4556 46.7522 13.2096 46.6633 12.9422C46.5745 12.6747 46.5427 12.3917 46.5701 12.1112V12.1112ZM49.7343 12.1112C49.7343 11.1872 49.318 10.6468 48.5874 10.6468C47.8541 10.6468 47.4416 11.1872 47.4416 12.1112C47.4416 13.0427 47.8541 13.5789 48.5874 13.5789C49.318 13.5789 49.7343 13.039 49.7343 12.1112H49.7343Z" fill="white"/>
<path d="M55.9614 14.2443H55.0862L54.2027 11.1047H54.1359L53.2561 14.2443H52.3893L51.2109 9.98145H52.0666L52.8324 13.2343H52.8955L53.7744 9.98145H54.5837L55.4626 13.2343H55.5293L56.2914 9.98145H57.1351L55.9614 14.2443Z" fill="white"/>
<path d="M58.126 9.98101H58.9381V10.6582H59.0012C59.1081 10.415 59.2885 10.2111 59.5172 10.075C59.7458 9.93882 60.0114 9.87721 60.2768 9.89873C60.4848 9.88313 60.6937 9.91441 60.8879 9.99023C61.0822 10.0661 61.2568 10.1845 61.3989 10.3368C61.541 10.489 61.6469 10.6712 61.7088 10.8699C61.7707 11.0685 61.787 11.2785 61.7565 11.4842V14.2438H60.9128V11.6955C60.9128 11.0105 60.6143 10.6698 59.9904 10.6698C59.8491 10.6632 59.7082 10.6872 59.5771 10.74C59.446 10.7929 59.328 10.8734 59.231 10.976C59.1341 11.0786 59.0605 11.2009 59.0154 11.3345C58.9703 11.4681 58.9547 11.6099 58.9696 11.75V14.2439H58.126L58.126 9.98101Z" fill="white"/>
<path d="M63.1006 8.31738H63.9442V14.2443H63.1006V8.31738Z" fill="white"/>
<path d="M65.1169 12.1113C65.0901 11.8312 65.1222 11.5485 65.2113 11.2814C65.3005 11.0144 65.4445 10.7689 65.6344 10.5606C65.8242 10.3524 66.0556 10.186 66.3137 10.0721C66.5718 9.95823 66.8509 9.89941 67.1331 9.89941C67.4154 9.89941 67.6945 9.95823 67.9526 10.0721C68.2107 10.186 68.4421 10.3524 68.6319 10.5606C68.8217 10.7689 68.9658 11.0144 69.0549 11.2814C69.144 11.5485 69.1762 11.8312 69.1493 12.1113C69.1767 12.3918 69.1449 12.6748 69.056 12.9423C68.9671 13.2097 68.8231 13.4557 68.6332 13.6643C68.4434 13.873 68.2118 14.0397 67.9535 14.1538C67.6951 14.2679 67.4157 14.3269 67.1331 14.3269C66.8506 14.3269 66.5711 14.2679 66.3128 14.1538C66.0544 14.0397 65.8229 13.873 65.633 13.6643C65.4431 13.4557 65.2991 13.2097 65.2102 12.9423C65.1214 12.6748 65.0896 12.3918 65.1169 12.1113V12.1113ZM68.2811 12.1113C68.2811 11.1873 67.8648 10.6469 67.1343 10.6469C66.401 10.6469 65.9884 11.1873 65.9884 12.1113C65.9884 13.0428 66.401 13.579 67.1343 13.579C67.8648 13.579 68.2811 13.039 68.2811 12.1113H68.2811Z" fill="white"/>
<path d="M70.0371 13.039C70.0371 12.2717 70.6101 11.8293 71.6271 11.7664L72.785 11.6999V11.3319C72.785 10.8817 72.4865 10.6275 71.9098 10.6275C71.4389 10.6275 71.1125 10.7999 71.0189 11.1013H70.2021C70.2884 10.3691 70.979 9.89941 71.9488 9.89941C73.0205 9.89941 73.625 10.4315 73.625 11.3319V14.2446H72.8128V13.6455H72.7461C72.6106 13.8604 72.4203 14.0356 72.1948 14.1531C71.9692 14.2707 71.7163 14.3265 71.4621 14.3148C71.2826 14.3334 71.1012 14.3143 70.9296 14.2587C70.758 14.2032 70.6 14.1124 70.4657 13.9922C70.3315 13.872 70.224 13.725 70.1501 13.5609C70.0763 13.3967 70.0378 13.2189 70.0371 13.039V13.039ZM72.785 12.6747V12.3184L71.7411 12.3849C71.1524 12.4242 70.8854 12.6239 70.8854 12.9997C70.8854 13.3834 71.2191 13.6066 71.6781 13.6066C71.8126 13.6202 71.9484 13.6067 72.0775 13.5668C72.2066 13.527 72.3264 13.4616 72.4297 13.3747C72.5329 13.2878 72.6176 13.181 72.6787 13.0607C72.7397 12.9405 72.7759 12.8092 72.785 12.6747V12.6747Z" fill="white"/>
<path d="M74.7344 12.1111C74.7344 10.7641 75.4288 9.91077 76.5088 9.91077C76.776 9.89849 77.0411 9.9623 77.2733 10.0947C77.5054 10.2272 77.695 10.4228 77.8197 10.6587H77.8828V8.31738H78.7264V14.2443H77.918V13.5708H77.8513C77.7168 13.8051 77.5207 13.9983 77.2841 14.1294C77.0474 14.2605 76.7793 14.3245 76.5088 14.3146C75.4214 14.3146 74.7344 13.4613 74.7344 12.1111ZM75.6059 12.1111C75.6059 13.0152 76.0333 13.5593 76.7481 13.5593C77.4591 13.5593 77.8986 13.0074 77.8986 12.1148C77.8986 11.2263 77.4545 10.6665 76.7481 10.6665C76.0379 10.6665 75.6058 11.2143 75.6058 12.1111H75.6059Z" fill="white"/>
<path d="M82.2166 12.1112C82.1897 11.8311 82.2218 11.5484 82.3109 11.2814C82.4 11.0144 82.5441 10.7689 82.7339 10.5606C82.9237 10.3524 83.1551 10.186 83.4131 10.0721C83.6712 9.95823 83.9503 9.89941 84.2325 9.89941C84.5147 9.89941 84.7938 9.95823 85.0519 10.0721C85.31 10.186 85.5414 10.3524 85.7312 10.5606C85.921 10.7689 86.0651 11.0144 86.1541 11.2814C86.2432 11.5484 86.2754 11.8311 86.2485 12.1112C86.2759 12.3917 86.2441 12.6747 86.1553 12.9422C86.0664 13.2096 85.9224 13.4556 85.7326 13.6643C85.5427 13.8729 85.3112 14.0397 85.0528 14.1538C84.7945 14.2679 84.5151 14.3268 84.2325 14.3268C83.95 14.3268 83.6706 14.2679 83.4122 14.1538C83.1539 14.0397 82.9223 13.8729 82.7325 13.6643C82.5426 13.4556 82.3986 13.2096 82.3098 12.9422C82.2209 12.6747 82.1892 12.3917 82.2166 12.1112V12.1112ZM85.3807 12.1112C85.3807 11.1872 84.9645 10.6468 84.2339 10.6468C83.5006 10.6468 83.0881 11.1872 83.0881 12.1112C83.0881 13.0427 83.5006 13.5789 84.2339 13.5789C84.9645 13.5789 85.3807 13.039 85.3807 12.1112Z" fill="white"/>
<path d="M87.3809 9.98101H88.193V10.6582H88.256C88.363 10.415 88.5434 10.2111 88.772 10.075C89.0007 9.93882 89.2663 9.87721 89.5317 9.89873C89.7397 9.88313 89.9486 9.91441 90.1428 9.99023C90.337 10.0661 90.5117 10.1845 90.6538 10.3368C90.7959 10.489 90.9018 10.6712 90.9637 10.8699C91.0256 11.0685 91.0419 11.2785 91.0114 11.4842V14.2438H90.1677V11.6955C90.1677 11.0105 89.8692 10.6698 89.2453 10.6698C89.104 10.6632 88.9631 10.6872 88.832 10.74C88.7009 10.7929 88.5829 10.8734 88.4859 10.976C88.389 11.0786 88.3154 11.2009 88.2703 11.3345C88.2252 11.4681 88.2096 11.6099 88.2245 11.75V14.2439H87.3809V9.98101Z" fill="white"/>
<path d="M95.7781 8.91992V10.0007H96.7043V10.7093H95.7781V12.9013C95.7781 13.3478 95.9626 13.5433 96.3826 13.5433C96.4901 13.543 96.5975 13.5365 96.7043 13.5239V14.2247C96.5528 14.2517 96.3993 14.2661 96.2454 14.2677C95.3071 14.2677 94.9335 13.9386 94.9335 13.1167V10.7093H94.2549V10.0006H94.9335V8.91992H95.7781Z" fill="white"/>
<path d="M97.8564 8.31738H98.6927V10.6665H98.7594C98.8716 10.421 99.0569 10.216 99.2902 10.0793C99.5234 9.9427 99.7932 9.88108 100.063 9.9029C100.27 9.89168 100.477 9.92612 100.669 10.0038C100.861 10.0815 101.033 10.2004 101.174 10.3522C101.314 10.504 101.42 10.6849 101.482 10.8819C101.545 11.079 101.563 11.2873 101.535 11.4921V14.2444H100.691V11.6997C100.691 11.0188 100.373 10.6739 99.7765 10.6739C99.6315 10.6621 99.4856 10.6819 99.3491 10.7322C99.2127 10.7824 99.0888 10.8618 98.9863 10.9647C98.8838 11.0676 98.805 11.1917 98.7556 11.3281C98.7062 11.4646 98.6873 11.6101 98.7001 11.7547V14.2443H97.8565L97.8564 8.31738Z" fill="white"/>
<path d="M106.455 13.0936C106.34 13.4832 106.092 13.8202 105.753 14.0457C105.414 14.2711 105.007 14.3707 104.602 14.3269C104.321 14.3343 104.041 14.2805 103.782 14.1693C103.523 14.058 103.292 13.8919 103.104 13.6826C102.916 13.4732 102.776 13.2256 102.694 12.9569C102.612 12.6882 102.589 12.4049 102.628 12.1266C102.59 11.8474 102.613 11.5635 102.695 11.294C102.777 11.0245 102.917 10.7757 103.104 10.5646C103.29 10.3534 103.521 10.1847 103.779 10.07C104.037 9.95522 104.316 9.89708 104.599 9.89949C105.788 9.89949 106.506 10.7098 106.506 12.0485V12.342H103.487V12.3892C103.474 12.5456 103.494 12.7031 103.545 12.8515C103.596 12.9999 103.678 13.1359 103.785 13.2509C103.893 13.3659 104.023 13.4572 104.167 13.5191C104.312 13.5811 104.468 13.6121 104.625 13.6104C104.827 13.6346 105.032 13.5983 105.213 13.5063C105.394 13.4143 105.544 13.2706 105.643 13.0936L106.455 13.0936ZM103.487 11.7198H105.646C105.657 11.5768 105.637 11.433 105.589 11.2979C105.541 11.1628 105.464 11.0393 105.365 10.9353C105.266 10.8313 105.146 10.7491 105.014 10.694C104.881 10.639 104.738 10.6122 104.594 10.6155C104.448 10.6137 104.303 10.641 104.168 10.6959C104.033 10.7507 103.91 10.832 103.807 10.9349C103.704 11.0378 103.622 11.1603 103.567 11.2951C103.512 11.4299 103.485 11.5743 103.487 11.7198H103.487Z" fill="white"/>
</g>
<defs>
<clipPath id="clip0_155_5464">
<rect width="128" height="38" fill="white" transform="translate(0 0.330078)"/>
</clipPath>
</defs>
</svg>
