<svg width="128" height="39" viewBox="0 0 128 39" fill="none" xmlns="http://www.w3.org/2000/svg">
<g clip-path="url(#clip0_155_5498)">
<path d="M123.069 0.396484H4.73343C2.11923 0.396484 0 2.51572 0 5.12992V33.5305C0 36.1447 2.11923 38.264 4.73343 38.264H123.069C125.683 38.264 127.803 36.1447 127.803 33.5305V5.12992C127.803 2.51572 125.683 0.396484 123.069 0.396484Z" fill="black"/>
<path d="M123.069 1.15383C124.124 1.15383 125.135 1.57274 125.881 2.3184C126.626 3.06406 127.045 4.0754 127.045 5.12992V33.5305C127.045 34.585 126.626 35.5964 125.881 36.342C125.135 37.0877 124.124 37.5066 123.069 37.5066H4.73343C3.67891 37.5066 2.66758 37.0877 1.92192 36.342C1.17626 35.5964 0.75735 34.585 0.75735 33.5305V5.12992C0.75735 4.0754 1.17626 3.06406 1.92192 2.3184C2.66758 1.57274 3.67891 1.15383 4.73343 1.15383H123.069ZM123.069 0.396484H4.73343C3.47805 0.396484 2.27408 0.895184 1.38639 1.78288C0.4987 2.67057 0 3.87453 0 5.12992V33.5305C0 34.7859 0.4987 35.9899 1.38639 36.8776C2.27408 37.7653 3.47805 38.264 4.73343 38.264H123.069C124.325 38.264 125.529 37.7653 126.416 36.8776C127.304 35.9899 127.803 34.7859 127.803 33.5305V5.12992C127.803 3.87453 127.304 2.67057 126.416 1.78288C125.529 0.895184 124.325 0.396484 123.069 0.396484Z" fill="#A6A6A6"/>
<path d="M44.8919 10.0903C44.9074 10.4375 44.8525 10.7842 44.7305 11.1096C44.6085 11.435 44.4219 11.7323 44.1819 11.9837C43.9129 12.2613 43.5884 12.4791 43.2295 12.6226C42.8706 12.7662 42.4854 12.8323 42.0992 12.8168C41.7107 12.8254 41.3246 12.7543 40.9647 12.6077C40.6048 12.4612 40.2789 12.2423 40.007 11.9647C39.4553 11.4005 39.1465 10.6427 39.1465 9.85362C39.1465 9.06452 39.4553 8.30676 40.007 7.74251C40.4287 7.3304 40.9629 7.05212 41.5423 6.94264C42.1217 6.83316 42.7205 6.89735 43.2636 7.12716C43.605 7.26749 43.9094 7.48452 44.1535 7.76144L43.6517 8.26319C43.4637 8.03671 43.2255 7.85719 42.956 7.73887C42.6865 7.62055 42.3931 7.56669 42.0992 7.58157C41.7281 7.58414 41.3633 7.67756 41.0366 7.85366C40.71 8.02977 40.4315 8.2832 40.2254 8.59181C40.0193 8.90041 39.8919 9.2548 39.8544 9.62399C39.817 9.99318 39.8705 10.3659 40.0103 10.7097C40.1501 11.0534 40.372 11.3577 40.6566 11.5958C40.9411 11.834 41.2797 11.9989 41.6427 12.076C42.0057 12.1531 42.382 12.1402 42.7388 12.0383C43.0957 11.9363 43.4221 11.7486 43.6896 11.4914C43.9788 11.1743 44.1464 10.7652 44.1629 10.3364H42.0992V9.65482H44.854C44.8756 9.79906 44.8882 9.94449 44.8919 10.0903Z" fill="white" stroke="white" stroke-width="0.179113" stroke-miterlimit="10"/>
<path d="M49.2281 7.72399H46.672V9.52269H49.0009V10.2043H46.672V12.003H49.2281V12.7036H45.9336V7.02344H49.2281V7.72399Z" fill="white" stroke="white" stroke-width="0.179113" stroke-miterlimit="10"/>
<path d="M52.3331 12.7036H51.6041V7.72399H50.0137V7.02344H53.9614V7.72399H52.3331V12.7036Z" fill="white" stroke="white" stroke-width="0.179113" stroke-miterlimit="10"/>
<path d="M56.7441 12.7036V7.02344H57.4731V12.7036H56.7441Z" fill="white" stroke="white" stroke-width="0.179113" stroke-miterlimit="10"/>
<path d="M60.711 12.7036H59.982V7.72399H58.3916V7.02344H62.292V7.72399H60.711V12.7036Z" fill="white" stroke="white" stroke-width="0.179113" stroke-miterlimit="10"/>
<path d="M69.6861 11.9651C69.4127 12.2388 69.088 12.4559 68.7306 12.604C68.3733 12.7521 67.9902 12.8283 67.6034 12.8283C67.2165 12.8283 66.8335 12.7521 66.4761 12.604C66.1188 12.4559 65.7941 12.2388 65.5207 11.9651C64.9855 11.3962 64.6875 10.6446 64.6875 9.86349C64.6875 9.08242 64.9855 8.33076 65.5207 7.76185C65.7882 7.48049 66.1118 7.25843 66.4706 7.11003C66.8293 6.96164 67.2153 6.89021 67.6034 6.90036C67.9909 6.89423 68.3757 6.9675 68.7338 7.11566C69.092 7.26382 69.4161 7.48373 69.6861 7.76185C69.9583 8.03874 70.1723 8.36738 70.3154 8.72835C70.4584 9.08931 70.5277 9.47529 70.5192 9.86349C70.5316 10.2522 70.4641 10.6393 70.3208 11.0008C70.1775 11.3623 69.9614 11.6905 69.6861 11.9651ZM66.0603 11.4918C66.2619 11.6962 66.5022 11.8584 66.7671 11.9692C67.032 12.0799 67.3163 12.137 67.6034 12.137C67.8905 12.137 68.1748 12.0799 68.4397 11.9692C68.7046 11.8584 68.9448 11.6962 69.1465 11.4918C69.555 11.0479 69.7817 10.4667 69.7817 9.86349C69.7817 9.26026 69.555 8.67907 69.1465 8.23519C68.9448 8.03082 68.7046 7.86855 68.4397 7.75779C68.1748 7.64704 67.8905 7.59 67.6034 7.59C67.3163 7.59 67.032 7.64704 66.7671 7.75779C66.5022 7.86855 66.2619 8.03082 66.0603 8.23519C65.6518 8.67907 65.4251 9.26026 65.4251 9.86349C65.4251 10.4667 65.6518 11.0479 66.0603 11.4918Z" fill="white" stroke="white" stroke-width="0.179113" stroke-miterlimit="10"/>
<path d="M71.5508 12.7036V7.02344H72.4312L75.1955 11.4445V10.3463V7.02344H75.9245V12.7036H75.1671L72.2797 8.07426V9.16295V12.7036H71.5508Z" fill="white" stroke="white" stroke-width="0.179113" stroke-miterlimit="10"/>
<path d="M64.5077 20.9874C63.7101 20.9892 62.9309 21.2276 62.2687 21.6723C61.6066 22.117 61.0912 22.748 60.7877 23.4857C60.4841 24.2233 60.4062 25.0344 60.5636 25.8163C60.7211 26.5982 61.1069 27.3159 61.6722 27.8786C62.2375 28.4413 62.957 28.8237 63.7397 28.9775C64.5223 29.1312 65.333 29.0495 66.0692 28.7425C66.8054 28.4355 67.4341 27.9172 67.8756 27.2529C68.3172 26.5887 68.5519 25.8084 68.5501 25.0108C68.5578 24.4787 68.4583 23.9505 68.2577 23.4576C68.057 22.9647 67.7593 22.5173 67.3821 22.1419C67.0049 21.7664 66.5561 21.4708 66.0622 21.2724C65.5684 21.0741 65.0398 20.9771 64.5077 20.9874V20.9874ZM64.5077 27.4532C64.0188 27.4874 63.5309 27.3738 63.1075 27.127C62.6841 26.8802 62.3447 26.5118 62.1334 26.0696C61.9222 25.6274 61.8488 25.1318 61.9229 24.6474C61.997 24.163 62.2152 23.712 62.549 23.3532C62.8828 22.9943 63.3168 22.7442 63.7946 22.6353C64.2725 22.5264 64.772 22.5638 65.2283 22.7426C65.6846 22.9214 66.0766 23.2333 66.3533 23.6378C66.63 24.0423 66.7786 24.5207 66.7797 25.0108C66.795 25.3213 66.7479 25.6317 66.6413 25.9238C66.5346 26.2158 66.3706 26.4836 66.1589 26.7112C65.9471 26.9388 65.6919 27.1218 65.4083 27.2492C65.1247 27.3767 64.8185 27.446 64.5077 27.4532ZM55.6846 20.9874C54.8869 20.9892 54.1078 21.2276 53.4456 21.6723C52.7835 22.117 52.268 22.748 51.9645 23.4857C51.661 24.2233 51.5831 25.0344 51.7405 25.8163C51.898 26.5982 52.2837 27.3159 52.8491 27.8786C53.4144 28.4413 54.1339 28.8237 54.9166 28.9775C55.6992 29.1312 56.5099 29.0495 57.2461 28.7425C57.9823 28.4355 58.6109 27.9172 59.0525 27.2529C59.4941 26.5887 59.7288 25.8084 59.7269 25.0108C59.7346 24.4787 59.6352 23.9505 59.4346 23.4576C59.2339 22.9647 58.9361 22.5173 58.559 22.1419C58.1818 21.7664 57.7329 21.4708 57.2391 21.2724C56.7453 21.0741 56.2166 20.9771 55.6846 20.9874V20.9874ZM55.6846 27.4532C55.1957 27.4874 54.7078 27.3738 54.2844 27.127C53.861 26.8802 53.5216 26.5118 53.3103 26.0696C53.099 25.6274 53.0257 25.1318 53.0998 24.6474C53.1739 24.163 53.3921 23.712 53.7259 23.3532C54.0596 22.9943 54.4937 22.7442 54.9715 22.6353C55.4493 22.5264 55.9489 22.5638 56.4052 22.7426C56.8615 22.9214 57.2535 23.2333 57.5301 23.6378C57.8068 24.0423 57.9554 24.5207 57.9566 25.0108C57.9719 25.3213 57.9248 25.6317 57.8182 25.9238C57.7115 26.2158 57.5475 26.4836 57.3357 26.7112C57.124 26.9388 56.8688 27.1218 56.5852 27.2492C56.3016 27.3767 55.9954 27.446 55.6846 27.4532ZM45.1953 22.2275V23.9316H49.285C49.2208 24.7342 48.8872 25.4915 48.3383 26.0805C47.928 26.4985 47.4346 26.8257 46.89 27.041C46.3453 27.2562 45.7615 27.3548 45.1764 27.3302C43.9712 27.3302 42.8154 26.8514 41.9632 25.9992C41.111 25.147 40.6323 23.9912 40.6323 22.7861C40.6323 21.5809 41.111 20.4251 41.9632 19.5729C42.8154 18.7207 43.9712 18.242 45.1764 18.242C46.3317 18.2248 47.4474 18.6636 48.2815 19.4632L49.4838 18.2609C48.9195 17.7028 48.2496 17.263 47.5132 16.9671C46.7768 16.6713 45.9888 16.5254 45.1953 16.5379C44.3537 16.5052 43.5141 16.6427 42.7269 16.9421C41.9397 17.2416 41.2211 17.6969 40.614 18.2808C40.007 18.8647 39.5241 19.5651 39.1942 20.34C38.8644 21.115 38.6943 21.9486 38.6943 22.7908C38.6943 23.633 38.8644 24.4666 39.1942 25.2416C39.5241 26.0166 40.007 26.7169 40.614 27.3008C41.2211 27.8847 41.9397 28.34 42.7269 28.6395C43.5141 28.9389 44.3537 29.0764 45.1953 29.0437C46.0051 29.076 46.8126 28.9367 47.5648 28.6349C48.3169 28.333 48.9967 27.8755 49.5595 27.2923C50.5536 26.2002 51.0834 24.7639 51.0363 23.2878C51.0397 22.9325 51.0112 22.5777 50.9511 22.2275H45.1953ZM88.0897 23.5529C87.8428 22.8265 87.3811 22.1923 86.7657 21.7342C86.1504 21.276 85.4104 21.0156 84.6437 20.9874C84.1259 20.9864 83.6133 21.0916 83.1378 21.2965C82.6622 21.5014 82.2337 21.8017 81.8788 22.1788C81.5239 22.5559 81.2501 23.0018 81.0743 23.4889C80.8986 23.976 80.8246 24.494 80.857 25.0108C80.8489 25.875 81.1206 26.7186 81.6315 27.4156C82.1424 28.1127 82.8651 28.6257 83.6916 28.8781C84.5181 29.1306 85.4042 29.1088 86.2173 28.8162C87.0305 28.5235 87.7272 27.9757 88.2033 27.2544L86.8306 26.3077C86.6259 26.6488 86.3357 26.9305 85.9886 27.1248C85.6416 27.3191 85.2497 27.4192 84.852 27.4154C84.4417 27.4323 84.0358 27.3247 83.6878 27.1068C83.3397 26.8888 83.0657 26.5707 82.9018 26.1941L88.2885 23.9694L88.0897 23.5529ZM82.5989 24.8972C82.5797 24.6031 82.6194 24.3082 82.7156 24.0297C82.8118 23.7511 82.9626 23.4946 83.1592 23.2751C83.3558 23.0555 83.5942 22.8774 83.8605 22.7512C84.1268 22.625 84.4156 22.5532 84.71 22.5399C85.015 22.5213 85.3188 22.5931 85.5832 22.7464C85.8475 22.8996 86.0608 23.1275 86.1963 23.4014L82.5989 24.8972ZM78.2252 28.7975H79.9955V16.9639H78.2252V28.7975ZM75.3283 21.8867H75.2621C74.9976 21.5855 74.6712 21.345 74.3052 21.1816C73.9392 21.0182 73.5423 20.9358 73.1415 20.94C72.1069 20.9902 71.1313 21.4365 70.4169 22.1864C69.7024 22.9364 69.3039 23.9324 69.3039 24.9682C69.3039 26.004 69.7024 27 70.4169 27.7499C71.1313 28.4999 72.1069 28.9462 73.1415 28.9963C73.5428 29.0044 73.941 28.9237 74.3076 28.7601C74.6742 28.5964 75.0001 28.3538 75.2621 28.0496H75.3283V28.6271C75.3283 30.1702 74.5047 30.9938 73.1794 30.9938C72.7366 30.9841 72.3067 30.843 71.9443 30.5885C71.5819 30.334 71.3034 29.9775 71.144 29.5643L69.6103 30.1986C69.8939 30.9108 70.3869 31.5201 71.0241 31.9461C71.6614 32.372 72.4129 32.5946 73.1794 32.5843C75.2526 32.5843 76.9661 31.3631 76.9661 28.3905V21.224H75.3283V21.8867ZM73.2929 27.4532C72.6727 27.4146 72.0905 27.1409 71.6649 26.688C71.2394 26.2351 71.0025 25.637 71.0025 25.0155C71.0025 24.3941 71.2394 23.796 71.6649 23.343C72.0905 22.8901 72.6727 22.6165 73.2929 22.5778C73.5961 22.5909 73.8936 22.6648 74.1676 22.7952C74.4416 22.9256 74.6865 23.1097 74.8879 23.3367C75.0893 23.5637 75.243 23.8289 75.3398 24.1165C75.4366 24.4041 75.4745 24.7082 75.4514 25.0108C75.4772 25.3144 75.4412 25.6201 75.3455 25.9093C75.2498 26.1986 75.0965 26.4655 74.8947 26.6938C74.6929 26.9221 74.447 27.1071 74.1717 27.2377C73.8963 27.3682 73.5974 27.4415 73.2929 27.4532V27.4532ZM96.3826 16.9639H92.1415V28.7975H93.9118V24.3102H96.3826C96.8872 24.3465 97.3938 24.2784 97.8708 24.1102C98.3479 23.9421 98.7852 23.6774 99.1555 23.3328C99.5258 22.9881 99.8211 22.5709 100.023 22.1071C100.225 21.6433 100.329 21.1429 100.329 20.6371C100.329 20.1313 100.225 19.6308 100.023 19.167C99.8211 18.7033 99.5258 18.286 99.1555 17.9414C98.7852 17.5968 98.3479 17.3321 97.8708 17.164C97.3938 16.9958 96.8872 16.9277 96.3826 16.9639V16.9639ZM96.3826 22.6441H93.9118V18.6112H96.4205C96.6866 18.6112 96.95 18.6636 97.1958 18.7654C97.4416 18.8672 97.6649 19.0164 97.853 19.2046C98.0412 19.3927 98.1904 19.616 98.2922 19.8618C98.394 20.1076 98.4464 20.371 98.4464 20.6371C98.4464 20.9031 98.394 21.1666 98.2922 21.4124C98.1904 21.6582 98.0412 21.8815 97.853 22.0696C97.6649 22.2577 97.4416 22.407 97.1958 22.5088C96.95 22.6106 96.6866 22.663 96.4205 22.663L96.3826 22.6441ZM107.307 20.9495C106.663 20.9097 106.021 21.0598 105.46 21.3812C104.9 21.7026 104.446 22.1811 104.155 22.7577L105.717 23.4109C105.875 23.1263 106.112 22.8935 106.399 22.7407C106.686 22.5878 107.012 22.5214 107.336 22.5494C107.561 22.5232 107.788 22.5419 108.006 22.6046C108.223 22.6673 108.426 22.7727 108.602 22.9145C108.778 23.0564 108.925 23.232 109.032 23.431C109.14 23.63 109.207 23.8484 109.229 24.0736V24.1872C108.66 23.8879 108.026 23.732 107.383 23.7328C105.698 23.7328 103.975 24.6794 103.975 26.4024C103.992 26.7686 104.082 27.1278 104.24 27.4585C104.398 27.7892 104.621 28.0848 104.896 28.3276C105.17 28.5705 105.491 28.7556 105.839 28.8721C106.186 28.9886 106.554 29.0341 106.919 29.0058C107.364 29.0304 107.806 28.9364 108.202 28.7334C108.598 28.5305 108.933 28.2259 109.172 27.8508H109.229V28.7975H110.933V24.244C110.933 22.1707 109.362 20.9684 107.345 20.9684L107.307 20.9495ZM107.09 27.4343C106.512 27.4343 105.708 27.1408 105.708 26.4308C105.708 25.4841 106.711 25.1623 107.601 25.1623C108.163 25.1484 108.719 25.2857 109.21 25.5599C109.151 26.074 108.907 26.5491 108.524 26.8973C108.141 27.2454 107.645 27.4429 107.128 27.4532L107.09 27.4343ZM117.143 21.224L115.118 26.3551H115.061L112.959 21.224H111.066L114.218 28.3999L112.42 32.3855H114.266L119.113 21.224H117.143ZM101.239 28.7975H103V16.9639H101.239V28.7975Z" fill="white"/>
<path d="M9.88359 7.53404C9.57162 7.90289 9.41245 8.37703 9.43864 8.8594V29.8001C9.40643 30.2833 9.56634 30.7596 9.88359 31.1255L9.94985 31.2012L21.6793 19.4718V19.1878L9.94985 7.46777L9.88359 7.53404Z" fill="url(#paint0_linear_155_5498)"/>
<path d="M25.5611 23.382L21.6797 19.4721V19.1881L25.5611 15.2783L25.6463 15.3351L30.2945 17.9669C31.6199 18.7148 31.6199 19.9455 30.2945 20.7028L25.6652 23.3346L25.5611 23.382Z" fill="url(#paint1_linear_155_5498)"/>
<path d="M25.6745 23.3251L21.6795 19.3301L9.88379 31.1258C10.1513 31.3639 10.4937 31.5009 10.8516 31.513C11.2096 31.5251 11.5604 31.4116 11.8434 31.1921L25.6745 23.3251" fill="url(#paint2_linear_155_5498)"/>
<path d="M25.6745 15.335L11.8434 7.47755C11.5623 7.255 11.2117 7.13869 10.8533 7.14908C10.4948 7.15947 10.1516 7.29589 9.88379 7.53435L21.6795 19.3301L25.6745 15.335Z" fill="url(#paint3_linear_155_5498)"/>
<path opacity="0.2" d="M25.5609 23.2402L11.8434 31.0504C11.5707 31.2562 11.2384 31.3675 10.8967 31.3675C10.5551 31.3675 10.2228 31.2562 9.95006 31.0504V31.0504L9.88379 31.1167L9.95006 31.1924C10.2228 31.3982 10.5551 31.5096 10.8967 31.5096C11.2384 31.5096 11.5707 31.3982 11.8434 31.1924L25.6745 23.3254L25.5609 23.2402Z" fill="black"/>
<path opacity="0.12" d="M9.88291 30.993C9.57883 30.6175 9.42981 30.14 9.46637 29.6582V29.8002C9.43416 30.2834 9.59407 30.7597 9.91131 31.1256L9.97758 31.0593L9.88291 30.993Z" fill="black"/>
<path opacity="0.12" d="M30.294 20.5608L25.5605 23.2399L25.6457 23.3251L30.294 20.6933C30.5684 20.5773 30.8064 20.3894 30.983 20.1495C31.1596 19.9096 31.2682 19.6265 31.2975 19.3301C31.2383 19.5995 31.1166 19.8512 30.9423 20.065C30.768 20.2787 30.5459 20.4486 30.294 20.5608Z" fill="black"/>
<path opacity="0.25" d="M11.8431 7.61L30.294 18.0993C30.546 18.2115 30.768 18.3813 30.9423 18.5951C31.1166 18.8089 31.2383 19.0606 31.2975 19.33C31.2682 19.0335 31.1596 18.7504 30.983 18.5105C30.8064 18.2706 30.5684 18.0828 30.294 17.9667L11.8431 7.47746C10.5272 6.72011 9.43848 7.34492 9.43848 8.85962V9.00163C9.46688 7.48693 10.5272 6.86211 11.8431 7.61Z" fill="white"/>
</g>
<defs>
<linearGradient id="paint0_linear_155_5498" x1="20.6379" y1="8.64166" x2="4.75254" y2="24.5271" gradientUnits="userSpaceOnUse">
<stop stop-color="#00A0FF"/>
<stop offset="0.01" stop-color="#00A1FF"/>
<stop offset="0.26" stop-color="#00BEFF"/>
<stop offset="0.51" stop-color="#00D2FF"/>
<stop offset="0.76" stop-color="#00DFFF"/>
<stop offset="1" stop-color="#00E3FF"/>
</linearGradient>
<linearGradient id="paint1_linear_155_5498" x1="32.027" y1="19.3301" x2="9.12662" y2="19.3301" gradientUnits="userSpaceOnUse">
<stop stop-color="#FFE000"/>
<stop offset="0.41" stop-color="#FFBD00"/>
<stop offset="0.78" stop-color="#FFA500"/>
<stop offset="1" stop-color="#FF9C00"/>
</linearGradient>
<linearGradient id="paint2_linear_155_5498" x1="23.5066" y1="21.5075" x2="1.96001" y2="43.0446" gradientUnits="userSpaceOnUse">
<stop stop-color="#FF3A44"/>
<stop offset="1" stop-color="#C31162"/>
</linearGradient>
<linearGradient id="paint3_linear_155_5498" x1="6.91119" y1="0.566735" x2="16.5295" y2="10.1851" gradientUnits="userSpaceOnUse">
<stop stop-color="#32A071"/>
<stop offset="0.07" stop-color="#2DA771"/>
<stop offset="0.48" stop-color="#15CF74"/>
<stop offset="0.8" stop-color="#06E775"/>
<stop offset="1" stop-color="#00F076"/>
</linearGradient>
<clipPath id="clip0_155_5498">
<rect width="127.803" height="37.8675" fill="white" transform="translate(0 0.396484)"/>
</clipPath>
</defs>
</svg>
