<svg width="1440" height="400" viewBox="0 0 1440 400" fill="none" xmlns="http://www.w3.org/2000/svg">
  <path d="M0,400 L0,250 L100,300 L200,200 L300,250 L400,150 L500,200 L600,100 L700,150 L800,50 L900,150 L1000,100 L1100,200 L1200,150 L1300,250 L1400,200 L1440,250 L1440,400 Z" fill="rgba(0,0,0,0.3)"/>
  <path d="M0,400 L0,300 L150,350 L250,250 L350,300 L450,200 L550,250 L650,150 L750,200 L850,100 L950,200 L1050,150 L1150,250 L1250,200 L1350,300 L1440,250 L1440,400 Z" fill="rgba(0,0,0,0.2)"/>
  <path d="M0,400 L0,350 L200,380 L300,320 L400,350 L500,300 L600,330 L700,280 L800,320 L900,270 L1000,320 L1100,280 L1200,330 L1300,300 L1440,350 L1440,400 Z" fill="rgba(0,0,0,0.1)"/>
</svg>

